<?xml version="1.0" standalone="no"?><!DOCTYPE svg PUBLIC "-//W3C//DTD SVG 1.1//EN" "http://www.w3.org/Graphics/SVG/1.1/DTD/svg11.dtd"><svg height="600" node-id="1" sillyvg="true" template-height="600" template-width="600" version="1.1" viewBox="0 0 600 600" width="600" xmlns="http://www.w3.org/2000/svg" xmlns:xlink="http://www.w3.org/1999/xlink"><defs node-id="113"></defs><g node-id="115"><g node-id="134"><g node-id="147"><path d="M 419.60 375.00 C 439.80 383.90 406.90 385.00 362.70 388.50 C 318.50 392.10 293.50 388.90 260.60 388.40 C 227.80 387.90 179.20 390.20 175.90 380.40 C 172.50 370.60 200.00 364.00 202.50 358.50 C 204.90 353.10 144.10 356.10 145.60 349.80 C 146.10 347.70 148.00 345.80 151.10 344.10 C 177.90 329.20 294.00 327.80 350.50 327.40 C 413.50 326.90 478.80 326.00 504.80 340.90 C 508.30 342.90 509.80 344.60 509.70 346.10 C 509.30 355.90 443.30 356.40 423.60 359.50 C 400.60 363.00 399.40 366.10 419.60 375.00 Z" fill="#c7d4ff" fill-rule="nonzero" group-id="1,20,33" id="XMLID_215_" node-id="5" stroke="none" target-height="66.100006" target-width="365.69998" target-x="144.1" target-y="326"></path><path d="M 390.00 358.60 C 404.90 364.40 380.60 365.00 348.00 367.30 C 315.30 369.50 296.80 367.50 272.60 367.10 C 248.30 366.70 212.50 368.20 210.00 361.80 C 207.50 355.40 227.80 351.20 229.60 347.70 C 231.40 344.20 186.40 346.10 187.50 341.90 C 187.90 340.50 189.30 339.30 191.50 338.20 C 211.30 328.60 297.10 327.90 338.80 327.60 C 385.30 327.30 443.90 324.20 452.80 333.70 C 457.10 338.30 407.40 346.60 392.80 348.50 C 375.90 350.80 375.00 352.80 390.00 358.60 Z" fill="#99adf9" fill-rule="nonzero" group-id="1,20,33" id="XMLID_14_" node-id="6" stroke="none" target-height="45.299988" target-width="270.7" target-x="186.4" target-y="324.2"></path><path d="M 419.60 375.00 C 439.80 383.90 406.90 385.00 362.70 388.50 C 318.50 392.10 293.50 388.90 260.60 388.40 C 227.80 387.90 179.20 390.20 175.90 380.40 C 172.50 370.60 200.00 364.00 202.50 358.50 C 204.90 353.10 144.10 356.10 145.60 349.80 C 146.10 347.70 148.00 345.80 151.10 344.10 C 151.90 345.60 155.10 347.10 164.00 347.80 C 184.30 349.30 213.00 350.40 214.70 354.70 C 216.40 359.00 186.50 370.80 190.30 376.80 C 194.10 382.70 274.60 380.30 322.70 382.00 C 370.80 383.70 413.60 380.60 408.10 377.30 C 402.60 374.00 389.20 366.70 399.30 360.10 C 409.40 353.50 465.10 352.40 488.60 350.10 C 498.20 349.20 505.00 347.60 509.60 346.10 C 509.20 355.90 443.20 356.40 423.50 359.50 C 400.60 363.00 399.40 366.10 419.60 375.00 Z" fill="#99adf9" fill-rule="nonzero" group-id="1,20,33" id="XMLID_211_" node-id="7" stroke="none" target-height="48" target-width="365.5" target-x="144.1" target-y="344.1"></path><path d="M 474.00 338.90 C 467.90 339.40 468.40 345.40 478.80 344.00 C 489.10 342.70 485.90 337.90 474.00 338.90 Z" fill="#99adf9" fill-rule="nonzero" group-id="1,20,33" id="XMLID_1_" node-id="8" stroke="none" target-height="7.5" target-width="21.200012" target-x="467.9" target-y="337.9"></path><path d="M 437.90 343.40 C 431.80 343.90 432.30 349.90 442.70 348.50 C 453.10 347.30 449.80 342.40 437.90 343.40 Z" fill="#99adf9" fill-rule="nonzero" group-id="1,20,33" id="XMLID_4_" node-id="9" stroke="none" target-height="7.5" target-width="21.300018" target-x="431.8" target-y="342.4"></path><path d="M 175.20 340.90 C 169.10 341.40 169.60 347.40 180.00 346.00 C 190.40 344.80 187.10 340.00 175.20 340.90 Z" fill="#99adf9" fill-rule="nonzero" group-id="1,20,33" id="XMLID_5_" node-id="10" stroke="none" target-height="7.399994" target-width="21.299988" target-x="169.1" target-y="340"></path><path d="M 207.80 361.60 C 201.70 362.10 202.20 368.10 212.60 366.70 C 222.90 365.40 219.70 360.60 207.80 361.60 Z" fill="#99adf9" fill-rule="nonzero" group-id="1,20,33" id="XMLID_6_" node-id="11" stroke="none" target-height="7.5" target-width="21.199997" target-x="201.7" target-y="360.6"></path></g><g node-id="148"><path d="M 530.30 370.00 C 523.40 374.70 512.80 375.70 497.10 375.90 C 485.80 376.10 479.40 372.50 480.20 369.00 C 480.80 366.40 485.50 363.90 495.10 362.90 C 513.00 361.10 529.40 363.30 531.60 366.80 C 532.30 367.80 531.90 368.90 530.30 370.00 Z" fill="#c7d4ff" fill-rule="nonzero" group-id="1,20,34" id="XMLID_228_" node-id="13" stroke="none" target-height="15" target-width="52.899994" target-x="479.4" target-y="361.1"></path></g><path d="M 191.70 326.20 C 183.40 331.00 170.40 332.30 151.00 332.90 C 137.10 333.30 129.10 329.90 130.10 326.40 C 130.80 323.80 136.50 321.10 148.30 320.00 C 170.20 317.80 190.50 319.60 193.40 323.10 C 194.20 324.00 193.70 325.00 191.70 326.20 Z" fill="#c7d4ff" fill-rule="nonzero" group-id="1,20,35" id="XMLID_251_" node-id="15" stroke="none" target-height="15.5" target-width="65.09999" target-x="129.1" target-y="317.8"></path></g></g><g node-id="116"><path d="M 509.80 178.10 C 509.80 178.10 523.40 176.70 538.50 196.30 C 550.50 211.80 547.80 230.30 547.80 230.30 C 547.80 230.30 557.00 211.30 544.60 193.60 C 531.30 174.70 509.80 178.10 509.80 178.10 Z" fill="#c7d4ff" fill-rule="nonzero" group-id="2" id="XMLID_125_" node-id="17" stroke="none" target-height="55.600006" target-width="47.200012" target-x="509.8" target-y="174.7"></path></g><g node-id="117"><path d="M 502.60 239.20 C 502.60 239.20 506.20 247.60 502.80 259.60 C 499.40 271.60 493.00 276.60 493.00 276.60 C 493.00 276.60 504.50 273.50 507.30 260.10 C 510.20 246.60 502.60 239.20 502.60 239.20 Z" fill="#c7d4ff" fill-rule="nonzero" group-id="3" id="XMLID_172_" node-id="19" stroke="none" target-height="37.40001" target-width="17.200012" target-x="493" target-y="239.2"></path></g><g node-id="118"><path d="M 213.90 248.40 C 213.90 248.40 212.50 240.60 223.50 225.90 C 234.50 211.20 250.50 205.60 250.50 205.60 L 231.10 165.50 C 231.10 165.50 238.40 193.60 227.70 202.00 C 216.90 210.40 199.10 199.60 199.10 199.60 C 199.10 199.60 209.70 218.20 206.30 226.40 C 203.00 234.60 185.00 236.00 185.00 236.00 L 213.90 248.40 Z" fill="#99adf9" fill-rule="nonzero" group-id="4" id="XMLID_122_" node-id="21" stroke="none" target-height="82.899994" target-width="65.5" target-x="185" target-y="165.5"></path></g><g node-id="119"><g node-id="135"><path d="M 275.80 407.00 L 263.80 421.40 C 262.60 422.90 260.30 423.10 258.80 421.80 C 257.30 420.60 257.10 418.30 258.40 416.80 C 258.50 416.70 258.70 416.50 258.80 416.40 L 273.00 404.10 C 273.80 403.40 275.10 403.50 275.80 404.30 C 276.50 405.20 276.40 406.30 275.80 407.00 Z" fill="#99adf9" fill-rule="nonzero" group-id="5,21" id="XMLID_136_" node-id="24" stroke="none" target-height="19.700012" target-width="19.399994" target-x="257.1" target-y="403.4"></path><path d="M 292.50 408.70 L 290.10 437.90 C 290.00 439.50 288.50 440.70 286.90 440.60 C 285.30 440.50 284.10 439.00 284.20 437.40 C 284.20 437.40 284.20 437.30 284.20 437.30 L 288.10 408.20 C 288.30 407.00 289.40 406.20 290.60 406.30 C 291.80 406.50 292.60 407.60 292.50 408.70 Z" fill="#99adf9" fill-rule="nonzero" group-id="5,21" id="XMLID_137_" node-id="25" stroke="none" target-height="34.5" target-width="8.5" target-x="284.1" target-y="406.2"></path><path d="M 309.60 407.60 L 317.50 428.30 C 318.20 430.10 317.30 432.20 315.50 432.90 C 313.70 433.60 311.60 432.70 310.90 430.90 C 310.80 430.80 310.80 430.60 310.80 430.40 L 305.80 408.80 C 305.60 407.70 306.20 406.70 307.30 406.40 C 308.30 406.20 309.30 406.70 309.60 407.60 Z" fill="#99adf9" fill-rule="nonzero" group-id="5,21" id="XMLID_138_" node-id="26" stroke="none" target-height="27.399994" target-width="12.600006" target-x="305.6" target-y="406.2"></path><path d="M 325.70 404.30 L 337.60 412.30 C 339.20 413.40 339.70 415.60 338.60 417.20 C 337.50 418.80 335.30 419.30 333.70 418.20 C 333.50 418.10 333.30 417.90 333.20 417.80 L 322.90 407.80 C 322.00 406.90 322.00 405.50 322.90 404.70 C 323.60 403.80 324.80 403.70 325.70 404.30 Z" fill="#99adf9" fill-rule="nonzero" group-id="5,21" id="XMLID_139_" node-id="27" stroke="none" target-height="15.599976" target-width="17.700012" target-x="322" target-y="403.7"></path></g></g><g node-id="120"><g node-id="136"><path d="M 535.20 254.60 C 529.30 273.00 503.50 282.40 503.50 282.40 C 503.50 282.40 503.80 282.10 504.30 281.60 C 504.30 281.60 504.30 281.60 504.30 281.60 C 508.00 277.40 523.30 258.00 510.20 232.80 C 495.40 204.20 446.50 214.00 446.50 214.00 L 445.40 206.90 L 444.20 199.50 C 444.20 199.50 470.80 175.80 506.70 189.30 C 540.90 202.20 541.10 236.30 535.20 254.60 Z" fill="#fec272" fill-rule="nonzero" group-id="6,22" id="XMLID_112_" node-id="30" stroke="none" target-height="106.59999" target-width="96.89996" target-x="444.2" target-y="175.8"></path><path d="M 516.20 270.60 C 513.40 275.00 509.00 278.70 504.40 281.60 C 508.10 277.40 523.40 258.00 510.30 232.80 C 495.50 204.20 446.60 214.00 446.60 214.00 L 445.50 206.90 C 456.10 205.40 484.10 203.00 503.10 214.00 C 525.70 227.10 525.60 255.90 516.20 270.60 Z" fill="#fcaa51" fill-rule="nonzero" group-id="6,22" id="XMLID_111_" node-id="31" stroke="none" target-height="78.600006" target-width="80.20001" target-x="445.5" target-y="203"></path></g></g><g node-id="121"><g node-id="137"><path d="M 455.10 236.50 C 454.60 252.40 452.00 266.20 448.40 274.20 C 440.70 291.60 435.30 301.50 424.00 310.30 C 419.80 313.60 414.80 316.70 408.50 320.00 C 385.40 332.10 322.50 332.90 322.50 332.90 C 320.00 333.10 317.50 333.30 315.00 333.40 C 292.10 334.60 270.50 332.10 257.20 324.90 C 251.00 321.60 246.60 317.20 244.70 311.80 C 238.40 293.40 236.10 265.30 277.90 194.10 C 304.80 148.30 338.40 130.20 370.20 130.40 C 387.10 130.50 403.40 135.80 418.00 144.80 C 418.60 145.20 419.30 145.60 419.90 146.00 C 448.10 164.20 456.10 204.60 455.10 236.50 Z" fill="#fec272" fill-rule="nonzero" group-id="7,23" id="XMLID_212_" node-id="34" stroke="none" target-height="204.40001" target-width="220" target-x="236.1" target-y="130.2"></path><g node-id="150"><path d="M 370.20 130.30 C 351.40 137.90 322.50 156.80 296.30 203.80 C 263.00 263.50 257.80 307.60 257.10 324.80 C 250.90 321.50 246.50 317.10 244.60 311.70 C 238.30 293.30 236.00 265.20 277.80 194.00 C 304.90 148.20 338.50 130.10 370.20 130.30 Z" fill="#ffcb8d" fill-rule="nonzero" group-id="7,23,36" id="XMLID_169_" node-id="36" stroke="none" target-height="194.69998" target-width="134.20001" target-x="236" target-y="130.1"></path><path d="M 455.10 236.50 C 454.60 252.40 452.00 266.20 448.40 274.20 C 437.80 298.00 431.60 307.80 408.50 319.90 C 385.40 332.00 322.50 332.80 322.50 332.80 C 320.00 333.00 317.50 333.20 315.00 333.30 C 314.30 323.80 316.70 311.00 322.30 294.30 C 339.30 243.30 366.30 224.50 396.80 218.60 C 423.10 213.60 443.60 226.40 455.10 236.50 Z" fill="#fcaa51" fill-rule="nonzero" group-id="7,23,36" id="XMLID_167_" node-id="37" stroke="none" target-height="119.69998" target-width="140.80002" target-x="314.3" target-y="213.6"></path><path d="M 455.10 236.50 C 454.60 252.40 452.00 266.20 448.40 274.20 C 440.70 291.60 435.30 301.50 424.00 310.30 C 431.00 290.90 437.70 264.20 438.30 232.00 C 439.00 189.40 427.20 160.50 418.00 144.80 C 418.60 145.20 419.30 145.60 419.90 146.00 C 448.10 164.20 456.10 204.60 455.10 236.50 Z" fill="#fcaa51" fill-rule="nonzero" group-id="7,23,36" id="XMLID_209_" node-id="38" stroke="none" target-height="165.49998" target-width="38.100006" target-x="418" target-y="144.8"></path></g></g></g><g node-id="122"><g node-id="138"><g node-id="151"><path d="M 455.60 243.90 C 454.00 262.60 446.20 292.60 438.90 312.50 C 436.00 320.40 433.20 326.80 430.80 330.10 C 426.80 335.80 419.00 338.30 411.20 338.80 C 403.00 339.40 394.70 338.00 390.90 335.90 C 383.90 332.20 366.50 300.30 370.40 265.50 C 370.60 263.40 370.90 261.30 371.30 259.20 C 378.30 222.10 395.70 211.70 422.10 214.60 C 427.30 215.20 432.80 216.10 437.90 217.90 C 448.50 221.70 457.00 228.90 455.60 243.90 Z" fill="#fec272" fill-rule="nonzero" group-id="8,24,37" id="XMLID_90_" node-id="42" stroke="none" target-height="127.7" target-width="90.5" target-x="366.5" target-y="211.7"></path><path d="M 438.90 312.50 C 436.00 320.40 433.20 326.80 430.80 330.10 C 422.60 341.80 398.40 339.90 390.90 336.00 C 383.90 332.30 366.50 300.40 370.40 265.60 C 372.60 281.70 380.60 304.30 407.30 310.10 C 420.20 313.00 430.60 313.40 438.90 312.50 Z" fill="#fcaa51" fill-rule="nonzero" group-id="8,24,37" id="XMLID_89_" node-id="43" stroke="none" target-height="76.19998" target-width="72.399994" target-x="366.5" target-y="265.6"></path><path d="M 455.60 243.90 C 454.00 262.60 446.20 292.60 438.90 312.50 C 436.00 320.40 433.20 326.80 430.80 330.10 C 426.80 335.80 419.00 338.30 411.20 338.80 C 419.10 324.60 437.30 285.90 438.20 231.90 C 438.30 227.10 438.20 222.40 438.00 217.90 C 448.50 221.70 457.00 228.90 455.60 243.90 Z" fill="#fcaa51" fill-rule="nonzero" group-id="8,24,37" id="XMLID_88_" node-id="44" stroke="none" target-height="120.899994" target-width="45.799988" target-x="411.2" target-y="217.9"></path></g><g node-id="152"><path d="M 430.10 343.30 C 429.20 343.50 427.80 343.70 426.10 343.80 C 424.80 343.90 423.40 344.10 421.80 344.20 C 418.80 344.40 415.40 344.60 411.90 344.70 C 410.50 344.70 409.00 344.80 407.60 344.80 C 404.60 344.90 401.70 344.80 399.00 344.80 C 398.60 344.80 398.20 344.80 397.90 344.80 C 396.80 344.80 395.70 344.70 394.80 344.70 C 394.40 344.70 394.00 344.60 393.70 344.60 C 392.10 344.50 390.90 344.20 390.00 344.00 C 383.90 342.10 380.20 336.10 384.90 328.80 C 389.60 321.50 399.80 315.70 413.30 315.70 C 426.80 315.70 438.10 323.60 438.70 332.10 C 439.30 340.50 436.40 342.10 430.10 343.30 Z" fill="#fec272" fill-rule="nonzero" group-id="8,24,38" id="XMLID_86_" node-id="46" stroke="none" target-height="29.199982" target-width="59.099976" target-x="380.2" target-y="315.7"></path><path d="M 412.00 331.40 L 412.00 344.70 C 410.60 344.70 409.10 344.80 407.70 344.80 L 407.70 331.40 C 407.70 330.20 408.70 329.20 409.80 329.20 C 410.90 329.20 412.00 330.20 412.00 331.40 Z" fill="#ffa245" fill-rule="nonzero" group-id="8,24,38" id="XMLID_85_" node-id="47" stroke="none" target-height="15.599976" target-width="4.299988" target-x="407.7" target-y="329.2"></path><path d="M 399.20 331.60 L 399.20 344.80 C 398.80 344.80 398.40 344.80 398.10 344.80 C 397.00 344.80 395.90 344.70 395.00 344.70 L 395.00 331.70 C 395.00 330.40 396.00 329.30 397.10 329.30 C 398.20 329.20 399.20 330.30 399.20 331.60 Z" fill="#ffa245" fill-rule="nonzero" group-id="8,24,38" id="XMLID_84_" node-id="48" stroke="none" target-height="15.599976" target-width="4.200012" target-x="395" target-y="329.2"></path><path d="M 426.20 331.40 L 426.20 343.80 C 424.90 343.90 423.50 344.10 421.90 344.20 L 421.90 331.40 C 421.90 330.20 422.90 329.20 424.00 329.20 C 425.10 329.20 426.20 330.20 426.20 331.40 Z" fill="#ffa245" fill-rule="nonzero" group-id="8,24,38" id="XMLID_83_" node-id="49" stroke="none" target-height="15" target-width="4.3000183" target-x="421.9" target-y="329.2"></path></g></g></g><g node-id="123"><g node-id="139"><path d="M 261.90 265.20 C 253.70 282.40 259.60 324.20 253.70 337.10 C 247.80 350.00 231.80 356.60 215.40 356.30 C 213.60 356.30 211.90 356.00 210.20 355.60 C 196.40 352.20 186.60 336.90 194.30 318.80 C 202.90 298.50 223.30 288.30 231.80 258.20 C 239.50 231.20 250.30 226.40 261.30 225.20 C 265.00 224.80 267.30 226.40 268.60 229.30 C 271.90 236.60 267.90 252.80 261.90 265.20 Z" fill="#ff8d76" fill-rule="nonzero" group-id="9,25" id="XMLID_207_" node-id="52" stroke="none" target-height="131.8" target-width="85.29999" target-x="186.6" target-y="224.8"></path><path d="M 261.90 265.20 C 253.70 282.40 259.60 324.20 253.70 337.10 C 247.80 350.00 231.80 356.60 215.40 356.30 C 213.60 356.30 211.90 356.00 210.20 355.60 C 208.00 350.50 207.10 342.90 210.00 331.90 C 217.30 304.30 231.40 299.10 234.00 279.70 C 236.70 260.30 237.00 248.30 244.00 237.80 C 250.30 228.40 265.30 229.00 268.60 229.30 C 271.90 236.60 267.90 252.80 261.90 265.20 Z" fill="#fc7059" fill-rule="nonzero" group-id="9,25" id="XMLID_203_" node-id="53" stroke="none" target-height="128.20001" target-width="64.79999" target-x="207.1" target-y="228.4"></path></g></g><g node-id="124"><g node-id="140"><path d="M 393.00 321.90 C 391.90 325.30 390.10 328.20 387.80 330.70 C 378.80 340.50 362.40 343.70 352.80 342.10 C 340.80 340.10 329.00 316.00 330.20 298.10 C 331.40 280.20 318.50 256.70 315.30 245.00 C 312.90 236.30 313.30 229.70 315.90 225.70 C 316.80 224.30 318.00 223.20 319.40 222.40 C 322.70 220.70 334.90 215.40 347.60 234.40 C 360.20 253.50 359.30 263.70 373.40 277.80 C 387.50 292.00 398.30 305.20 393.00 321.90 Z" fill="#ff8d76" fill-rule="nonzero" group-id="10,26" id="XMLID_77_" node-id="56" stroke="none" target-height="128.30002" target-width="85.399994" target-x="312.9" target-y="215.4"></path><path d="M 387.90 330.70 C 378.90 340.50 362.50 343.70 352.90 342.10 C 340.90 340.10 329.10 316.00 330.30 298.10 C 331.50 280.20 318.60 256.70 315.40 245.00 C 313.00 236.30 313.40 229.70 316.00 225.70 C 323.60 224.60 335.60 225.80 341.20 241.50 C 349.80 265.40 348.60 277.70 361.90 289.40 C 375.20 301.10 386.20 313.80 387.90 330.50 C 387.90 330.60 387.90 330.60 387.90 330.70 Z" fill="#fc7059" fill-rule="nonzero" group-id="10,26" id="XMLID_76_" node-id="57" stroke="none" target-height="119.100006" target-width="74.899994" target-x="313" target-y="224.6"></path></g></g><g node-id="125"><g node-id="141"><path d="M 371.20 338.40 C 369.90 349.40 364.10 356.80 350.80 361.50 C 330.90 368.50 312.40 359.20 305.10 358.00 C 297.60 356.70 286.30 363.90 274.90 367.90 C 263.50 372.00 242.10 373.50 230.70 362.20 C 224.70 356.20 220.80 347.70 220.10 338.80 C 219.40 331.00 221.20 322.80 226.00 315.60 C 236.20 300.40 241.60 285.50 243.20 256.20 C 244.80 226.90 267.60 215.10 289.50 213.20 C 296.40 212.60 315.60 211.60 330.20 224.50 C 344.90 237.40 343.70 263.80 348.70 276.70 C 353.70 289.60 367.20 297.50 370.40 319.50 C 371.50 326.80 371.90 333.00 371.20 338.40 Z" fill="#fec272" fill-rule="nonzero" group-id="11,27" id="XMLID_218_" node-id="60" stroke="none" target-height="161.9" target-width="152.5" target-x="219.4" target-y="211.6"></path><path d="M 314.10 321.20 C 311.20 329.10 304.10 334.80 299.30 334.80 C 294.50 334.80 285.20 330.20 280.70 326.00 C 275.90 321.50 275.60 317.20 276.70 314.30 C 276.70 314.20 276.80 314.00 276.90 313.90 C 278.20 311.10 286.00 308.60 295.80 307.30 C 303.30 306.30 311.80 306.10 313.80 307.40 C 314.30 307.80 314.80 308.30 315.20 309.10 C 316.20 311.40 316.30 315.40 314.10 321.20 Z" fill="#fcaa51" fill-rule="nonzero" group-id="11,27" id="XMLID_15_" node-id="61" stroke="none" target-height="28.699982" target-width="40.69998" target-x="275.6" target-y="306.1"></path><path d="M 371.20 338.40 C 369.90 349.40 364.10 356.80 350.80 361.50 C 330.90 368.50 312.40 359.20 305.10 358.00 C 297.60 356.70 286.30 363.90 274.90 367.90 C 263.50 372.00 242.10 373.50 230.70 362.20 C 224.70 356.20 220.80 347.70 220.10 338.80 C 224.80 346.50 234.60 359.60 247.50 361.80 C 265.90 364.90 276.80 348.50 302.30 348.50 C 335.10 348.50 337.50 361.00 358.00 350.30 C 363.70 347.20 368.00 342.90 371.20 338.40 Z" fill="#fcaa51" fill-rule="nonzero" group-id="11,27" id="XMLID_216_" node-id="62" stroke="none" target-height="35.100006" target-width="151.1" target-x="220.1" target-y="338.4"></path><path d="M 313.50 349.80 C 313.30 352.00 313.00 354.50 312.30 357.00 C 310.40 364.00 302.60 368.30 296.20 364.00 C 292.10 361.30 290.10 355.10 289.20 350.90 C 288.70 348.40 288.50 346.70 288.50 346.70 L 300.70 333.70 L 313.70 342.70 C 313.60 342.70 313.80 345.80 313.50 349.80 Z" fill="#fc7059" fill-rule="nonzero" group-id="11,27" id="XMLID_288_" node-id="63" stroke="none" target-height="34.599976" target-width="25.299988" target-x="288.5" target-y="333.7"></path><path d="M 313.50 349.80 C 307.20 350.40 301.40 346.30 301.40 346.30 C 301.40 346.30 299.10 348.70 294.20 350.50 C 292.60 351.10 290.80 351.20 289.20 351.00 C 288.70 348.50 288.50 346.80 288.50 346.80 L 300.70 333.80 L 313.70 342.80 C 313.60 342.70 313.80 345.80 313.50 349.80 Z" fill="#f45145" fill-rule="nonzero" group-id="11,27" id="XMLID_282_" node-id="64" stroke="none" target-height="17.400024" target-width="25.299988" target-x="288.5" target-y="333.8"></path><path d="M 262.10 337.90 C 259.20 341.20 266.10 348.70 277.30 350.20 C 288.60 351.70 299.30 345.70 300.50 341.00 C 301.70 336.30 300.60 328.80 300.60 328.80 L 296.80 328.80 C 296.80 328.80 298.00 339.50 288.30 343.80 C 273.30 350.40 264.10 335.50 262.10 337.90 Z" fill="#1c3177" fill-rule="nonzero" group-id="11,27" id="XMLID_193_" node-id="65" stroke="none" target-height="22.900024" target-width="42.5" target-x="259.2" target-y="328.8"></path><path d="M 302.40 326.70 C 302.40 326.70 303.10 336.80 312.40 340.50 C 321.60 344.20 325.80 341.80 329.30 340.20 C 333.10 338.40 333.10 334.60 335.80 335.70 C 337.20 336.30 336.70 341.30 331.90 344.50 C 326.20 348.30 320.60 348.80 312.80 346.90 C 305.00 345.00 300.80 341.50 299.80 337.20 C 298.80 332.90 298.20 328.00 298.20 328.00 L 302.40 326.70 Z" fill="#1c3177" fill-rule="nonzero" group-id="11,27" id="XMLID_195_" node-id="66" stroke="none" target-height="22.099976" target-width="39" target-x="298.2" target-y="326.7"></path><path d="M 314.10 316.70 C 311.20 324.60 304.10 330.30 299.30 330.30 C 294.50 330.30 285.20 325.70 280.70 321.50 C 275.90 317.00 275.60 312.70 276.70 309.80 C 276.70 309.70 276.80 309.50 276.90 309.40 C 278.20 306.60 286.00 304.10 295.80 302.80 C 303.30 301.80 311.80 301.60 313.80 302.90 C 314.30 303.30 314.80 303.80 315.20 304.60 C 316.20 307.00 316.30 310.90 314.10 316.70 Z" fill="#1c3177" fill-rule="nonzero" group-id="11,27" id="XMLID_223_" node-id="67" stroke="none" target-height="28.699982" target-width="40.69998" target-x="275.6" target-y="301.6"></path><path d="M 314.10 316.70 C 311.20 324.60 304.10 330.30 299.30 330.30 C 294.50 330.30 285.20 325.70 280.70 321.50 C 275.90 317.00 275.60 312.70 276.70 309.80 C 277.20 309.80 277.70 310.00 278.20 310.60 C 280.60 313.20 282.70 318.80 291.40 323.70 C 300.20 328.60 304.20 325.00 308.10 319.90 C 312.00 314.80 312.70 306.00 314.60 304.80 C 314.80 304.70 314.90 304.60 315.10 304.60 C 316.20 307.00 316.30 310.90 314.10 316.70 Z" fill="#0b2359" fill-rule="nonzero" group-id="11,27" id="XMLID_221_" node-id="68" stroke="none" target-height="25.699982" target-width="40.69998" target-x="275.6" target-y="304.6"></path></g></g><g node-id="126"><path d="M 269.70 292.80 C 269.70 298.76 266.43 303.60 262.40 303.60 C 258.37 303.60 255.10 298.76 255.10 292.80 C 255.10 286.84 258.37 282.00 262.40 282.00 C 266.43 282.00 269.70 286.84 269.70 292.80 Z" fill="#1c3177" fill-rule="nonzero" group-id="12" id="XMLID_62_" node-id="70" stroke="none" target-height="21.600006" target-width="14.600006" target-x="255.1" target-y="282"></path></g><g node-id="127"><g node-id="142"><path d="M 333.98 286.85 L 334.01 289.78 L 333.55 292.38 L 332.62 294.72 L 331.35 296.50 L 330.28 297.43 L 329.12 298.04 L 327.84 298.35 L 326.53 298.31 L 325.26 297.96 L 324.02 297.27 L 322.41 295.79 L 321.02 293.69 L 320.03 291.25 L 319.46 288.37 L 319.42 285.44 L 319.88 282.85 L 320.81 280.51 L 322.08 278.72 L 323.15 277.79 L 324.31 277.18 L 325.59 276.87 L 326.91 276.91 L 328.17 277.26 L 329.41 277.95 L 331.02 279.44 L 332.42 281.53 L 333.41 283.98 L 333.98 286.85 Z" fill="#1c3177" fill-rule="nonzero" group-id="13,28" id="XMLID_200_" node-id="72" stroke="none" target-height="21.483398" target-width="14.593201" target-x="319.42093" target-y="276.8706"></path></g></g><g node-id="128"><path d="M 257.40 258.80 C 253.30 262.30 251.00 266.30 249.90 269.30 C 248.70 272.20 250.10 273.30 253.60 273.40 C 257.10 273.50 263.00 269.20 266.20 264.20 C 269.40 259.10 263.70 253.30 257.40 258.80 Z" fill="#ff8d76" fill-rule="nonzero" group-id="14" id="XMLID_51_" node-id="74" stroke="none" target-height="20.199997" target-width="20.699997" target-x="248.7" target-y="253.3"></path></g><g node-id="129"><path d="M 327.40 252.40 C 332.00 255.20 334.80 258.90 336.50 261.60 C 338.20 264.30 336.90 265.60 333.50 266.20 C 330.00 266.80 323.60 263.50 319.60 259.10 C 315.60 254.70 320.30 248.00 327.40 252.40 Z" fill="#ff8d76" fill-rule="nonzero" group-id="15" id="XMLID_214_" node-id="76" stroke="none" target-height="18.799988" target-width="22.600006" target-x="315.6" target-y="248"></path></g><g node-id="130"><g node-id="143"><g node-id="153"><path d="M 72.90 471.30 C 68.30 471.20 65.30 471.00 64.80 471.00 C 62.20 470.80 60.30 468.60 60.40 466.00 C 60.60 463.40 62.70 461.40 65.40 461.60 C 65.90 461.60 100.70 465.20 129.40 453.40 C 140.00 449.10 145.90 445.20 147.00 442.10 C 147.80 439.80 146.00 436.40 143.00 431.00 C 142.00 429.20 140.90 427.30 139.80 425.20 C 137.40 420.50 137.20 415.30 139.20 410.30 C 145.70 394.30 173.20 383.70 181.50 380.90 C 227.60 365.10 262.30 371.20 263.70 371.50 C 266.20 372.00 267.90 374.40 267.50 377.00 C 267.00 379.60 264.60 381.20 262.00 380.80 C 261.70 380.70 228.10 374.90 184.50 389.90 C 165.50 396.40 151.10 405.90 147.80 413.90 C 146.80 416.40 146.90 418.70 148.10 421.00 C 149.10 422.90 150.10 424.80 151.10 426.50 C 154.70 432.80 158.00 438.80 155.80 445.30 C 153.70 451.50 146.80 456.50 132.90 462.20 C 109.40 471.80 88.50 471.70 72.90 471.30 Z" fill="#1c3177" fill-rule="nonzero" group-id="16,29,39" id="XMLID_48_" node-id="80" stroke="none" target-height="106.69998" target-width="207.59999" target-x="60.3" target-y="365.1"></path></g><g node-id="154"><g node-id="157"><path d="M 254.10 383.60 C 255.80 387.60 259.90 390.10 266.70 391.30 C 277.00 393.10 283.60 390.50 283.60 390.50 L 283.40 386.70 L 282.00 364.50 C 282.00 364.50 273.20 363.30 264.00 366.30 C 255.90 369.00 252.40 373.40 253.10 380.10 C 253.30 381.30 253.60 382.50 254.10 383.60 Z" fill="#f0f6ff" fill-rule="nonzero" group-id="16,29,40,43" id="XMLID_46_" node-id="83" stroke="none" target-height="29.800018" target-width="31.200012" target-x="252.4" target-y="363.3"></path><g node-id="161"><path d="M 279.00 377.70 L 278.91 374.10 L 279.08 371.01 L 279.52 368.17 L 280.10 366.20 L 280.69 365.08 L 281.27 364.50 L 281.85 364.29 L 282.46 364.43 L 283.11 364.93 L 283.83 365.97 L 284.66 367.85 L 285.46 370.61 L 286.02 373.65 L 286.38 377.23 L 286.47 380.83 L 286.30 383.91 L 285.86 386.75 L 285.28 388.72 L 284.69 389.84 L 284.11 390.42 L 283.53 390.63 L 282.92 390.50 L 282.27 389.99 L 281.55 388.95 L 280.72 387.07 L 279.92 384.31 L 279.36 381.28 L 279.00 377.70 Z" fill="#c2d7ef" fill-rule="nonzero" group-id="16,29,40,43,47" id="XMLID_45_" node-id="84" stroke="none" target-height="26.347198" target-width="7.5632935" target-x="278.9082" target-y="364.28745"></path></g><path d="M 254.10 383.60 C 255.80 387.60 259.90 390.10 266.70 391.30 C 277.00 393.10 283.60 390.50 283.60 390.50 L 283.40 386.70 C 279.40 386.50 274.30 386.20 269.40 385.70 C 262.40 384.80 257.20 384.10 254.10 383.60 Z" fill="#c2d7ef" fill-rule="nonzero" group-id="16,29,40,43" id="XMLID_44_" node-id="85" stroke="none" target-height="9.5" target-width="29.5" target-x="254.1" target-y="383.6"></path></g><path d="M 293.70 373.70 L 284.60 374.60 C 283.40 374.70 282.30 373.80 282.20 372.60 L 282.10 372.00 C 282.00 370.80 282.90 369.70 284.10 369.60 L 293.20 368.70 C 294.60 368.60 295.80 369.60 295.90 370.90 L 295.90 370.90 C 296.10 372.40 295.10 373.60 293.70 373.70 Z" fill="#87aacc" fill-rule="nonzero" group-id="16,29,40" id="XMLID_42_" node-id="86" stroke="none" target-height="6.100006" target-width="14.100006" target-x="282" target-y="368.6"></path><path d="M 294.60 384.90 L 285.50 385.80 C 284.30 385.90 283.20 385.00 283.10 383.80 L 283.00 383.20 C 282.90 382.00 283.80 380.90 285.00 380.80 L 294.10 379.90 C 295.50 379.80 296.70 380.80 296.80 382.10 L 296.80 382.10 C 297.00 383.60 296.00 384.80 294.60 384.90 Z" fill="#87aacc" fill-rule="nonzero" group-id="16,29,40" id="XMLID_41_" node-id="87" stroke="none" target-height="6.100006" target-width="14.100006" target-x="282.9" target-y="379.8"></path></g></g></g><g node-id="131"><g node-id="144"><g node-id="155"><path d="M 536.90 469.20 C 530.10 469.00 470.30 466.80 453.00 445.40 C 441.30 430.90 448.20 421.10 454.20 412.40 C 455.60 410.40 457.00 408.30 458.30 406.20 C 460.40 402.60 460.50 398.70 458.50 395.00 C 456.40 391.10 448.60 381.90 422.00 380.80 C 383.90 379.10 334.50 381.20 334.00 381.30 C 331.40 381.40 329.20 379.40 329.10 376.80 C 329.00 374.20 331.00 372.00 333.60 371.90 C 334.10 371.90 384.00 369.70 422.50 371.40 C 452.70 372.80 463.20 384.00 466.80 390.60 C 470.40 397.20 470.20 404.60 466.50 411.00 C 465.10 413.50 463.50 415.70 462.00 417.80 C 456.10 426.30 453.10 430.60 460.40 439.60 C 473.10 455.30 520.60 459.60 537.80 459.90 C 537.80 459.90 537.80 459.90 537.80 459.90 C 540.40 460.00 542.40 462.10 542.40 464.70 C 542.30 467.30 540.20 469.30 537.60 469.30 C 537.30 469.20 537.10 469.20 536.90 469.20 Z" fill="#1c3177" fill-rule="nonzero" group-id="17,30,41" id="XMLID_254_" node-id="91" stroke="none" target-height="99.599976" target-width="213.40002" target-x="329" target-y="369.7"></path></g><g node-id="156"><path d="M 340.10 379.80 C 338.70 383.90 334.90 386.80 328.20 388.50 C 318.10 391.10 311.30 389.00 311.30 389.00 L 311.20 385.20 L 310.80 363.00 C 310.80 363.00 319.50 361.00 328.80 363.30 C 337.10 365.30 340.90 369.40 340.80 376.20 C 340.70 377.50 340.50 378.70 340.10 379.80 Z" fill="#f0f6ff" fill-rule="nonzero" group-id="17,30,42" id="XMLID_191_" node-id="93" stroke="none" target-height="30.100006" target-width="30.100006" target-x="310.8" target-y="361"></path><path d="M 340.10 379.80 C 338.70 383.90 334.90 386.80 328.20 388.50 C 318.10 391.10 311.30 389.00 311.30 389.00 L 311.20 385.20 C 315.20 384.70 320.20 384.00 325.10 383.00 C 332.00 381.70 337.00 380.60 340.10 379.80 Z" fill="#c2d7ef" fill-rule="nonzero" group-id="17,30,42" id="XMLID_189_" node-id="94" stroke="none" target-height="11.300018" target-width="28.899994" target-x="311.2" target-y="379.8"></path><g node-id="158"><path d="M 314.79 375.92 L 314.72 379.52 L 314.41 382.59 L 313.84 385.41 L 313.17 387.35 L 312.53 388.45 L 311.93 389.00 L 311.33 389.19 L 310.73 389.02 L 310.11 388.49 L 309.43 387.42 L 308.69 385.50 L 308.02 382.71 L 307.60 379.65 L 307.39 376.06 L 307.46 372.46 L 307.77 369.39 L 308.34 366.57 L 309.01 364.63 L 309.65 363.53 L 310.25 362.98 L 310.85 362.79 L 311.45 362.96 L 312.07 363.49 L 312.75 364.56 L 313.49 366.47 L 314.16 369.27 L 314.58 372.33 L 314.79 375.92 Z" fill="#c2d7ef" fill-rule="nonzero" group-id="17,30,42,44" id="XMLID_162_" node-id="95" stroke="none" target-height="26.394745" target-width="7.3984985" target-x="307.3913" target-y="362.79156"></path></g><g node-id="159"><path d="M 311.89 370.67 L 311.85 372.46 L 311.68 373.79 L 311.36 374.84 L 311.07 375.09 L 310.77 374.85 L 310.41 373.81 L 310.20 372.49 L 310.09 370.70 L 310.13 368.91 L 310.30 367.59 L 310.62 366.54 L 310.91 366.29 L 311.21 366.53 L 311.57 367.57 L 311.78 368.88 L 311.89 370.67 Z" fill="#87aacc" fill-rule="nonzero" group-id="17,30,42,45" id="XMLID_180_" node-id="96" stroke="none" target-height="8.798248" target-width="1.7996216" target-x="310.08997" target-y="366.28888"></path></g><path d="M 311.89 382.07 L 311.85 383.87 L 311.68 385.19 L 311.36 386.24 L 311.07 386.49 L 310.77 386.25 L 310.41 385.21 L 310.20 383.90 L 310.09 382.11 L 310.14 380.31 L 310.30 378.99 L 310.62 377.94 L 310.91 377.69 L 311.21 377.93 L 311.57 378.97 L 311.78 380.28 L 311.89 382.07 Z" fill="#87aacc" fill-rule="nonzero" group-id="17,30,42,46" id="XMLID_182_" node-id="97" stroke="none" target-height="8.798218" target-width="1.7996216" target-x="310.09122" target-y="377.69022"></path></g></g></g><g node-id="132"><g node-id="145"><path d="M 247.60 378.50 C 247.60 379.30 247.60 380.10 247.50 380.80 C 247.00 385.90 244.50 389.60 239.10 392.10 C 237.60 392.80 235.80 393.40 233.70 393.80 C 230.10 394.70 225.60 395.20 220.20 395.50 C 219.00 395.60 217.70 395.60 216.30 395.60 C 215.30 395.60 214.40 395.60 213.40 395.60 C 210.00 395.60 206.80 395.50 203.80 395.30 C 201.80 395.10 199.80 394.80 198.10 394.50 C 190.70 392.90 185.90 389.40 185.00 382.50 L 185.00 382.50 C 185.60 387.60 174.80 354.40 216.10 350.50 C 235.20 348.60 247.60 367.10 247.60 378.50 Z" fill="#fcaa51" fill-rule="nonzero" group-id="18,31" id="XMLID_28_" node-id="100" stroke="none" target-height="47" target-width="72.8" target-x="174.8" target-y="348.6"></path><path d="M 247.60 378.50 C 247.60 379.30 247.60 380.10 247.50 380.80 C 243.50 386.20 234.10 388.80 216.10 389.10 C 201.80 389.40 190.30 388.40 185.00 382.40 L 185.00 382.40 C 185.60 387.50 174.80 354.30 216.10 350.40 C 235.20 348.60 247.60 367.10 247.60 378.50 Z" fill="#fec272" fill-rule="nonzero" group-id="18,31" id="XMLID_27_" node-id="101" stroke="none" target-height="40.799988" target-width="72.8" target-x="174.8" target-y="348.6"></path><path d="M 203.80 395.30 C 201.80 395.10 199.80 394.80 198.10 394.50 C 197.80 391.80 197.20 385.30 197.70 379.90 C 198.40 372.80 201.10 372.40 201.90 373.70 C 202.70 375.00 202.20 382.60 203.10 389.60 C 203.30 391.60 203.60 393.60 203.80 395.30 Z" fill="#ffa245" fill-rule="nonzero" group-id="18,31" id="XMLID_26_" node-id="102" stroke="none" target-height="22.899994" target-width="6.600006" target-x="197.2" target-y="372.4"></path><path d="M 239.10 392.10 C 237.60 392.80 235.80 393.40 233.70 393.80 C 233.50 391.90 233.30 389.60 233.00 387.20 C 232.20 380.20 229.90 372.90 230.30 371.50 C 230.70 370.10 233.50 369.80 235.80 376.60 C 238.10 382.90 239.00 391.00 239.10 392.10 Z" fill="#ffa245" fill-rule="nonzero" group-id="18,31" id="XMLID_25_" node-id="103" stroke="none" target-height="24" target-width="9.200012" target-x="229.9" target-y="369.8"></path><path d="M 220.20 395.50 C 219.00 395.60 217.70 395.60 216.30 395.60 C 215.30 395.60 214.40 395.60 213.40 395.60 C 213.40 392.90 213.30 389.30 213.10 386.00 C 212.80 379.50 212.60 375.30 214.60 374.90 C 216.60 374.50 218.70 381.70 219.60 389.30 C 219.90 391.90 220.10 393.90 220.20 395.50 Z" fill="#ffa245" fill-rule="nonzero" group-id="18,31" id="XMLID_24_" node-id="104" stroke="none" target-height="21.100006" target-width="7.599991" target-x="212.6" target-y="374.5"></path></g></g><g node-id="133"><g node-id="146"><path d="M 346.50 373.30 C 346.50 374.10 346.60 374.90 346.70 375.60 C 347.30 380.70 349.80 384.40 355.20 386.70 C 356.80 387.40 358.60 387.90 360.60 388.40 C 364.20 389.20 368.70 389.70 374.10 389.90 C 375.30 389.90 376.60 390.00 378.00 390.00 C 379.00 390.00 379.90 390.00 380.90 390.00 C 384.30 390.00 387.50 389.90 390.50 389.50 C 392.50 389.30 394.40 389.00 396.20 388.60 C 403.50 386.90 408.30 383.40 409.10 376.40 L 409.10 376.40 C 410.40 364.60 396.70 346.40 377.60 344.80 C 358.50 343.20 346.30 361.80 346.50 373.30 Z" fill="#fcaa51" fill-rule="nonzero" group-id="19,32" id="XMLID_176_" node-id="107" stroke="none" target-height="46.799988" target-width="64.100006" target-x="346.3" target-y="343.2"></path><path d="M 346.50 373.30 C 346.50 374.10 346.60 374.90 346.70 375.60 C 350.80 381.00 360.20 383.40 378.20 383.50 C 392.50 383.60 404.00 382.40 409.20 376.40 L 409.20 376.40 C 410.50 364.60 396.80 346.40 377.70 344.80 C 358.50 343.20 346.30 361.80 346.50 373.30 Z" fill="#fec272" fill-rule="nonzero" group-id="19,32" id="XMLID_171_" node-id="108" stroke="none" target-height="40.399994" target-width="64.20001" target-x="346.3" target-y="343.2"></path><path d="M 390.50 389.50 C 392.50 389.30 394.40 389.00 396.20 388.60 C 396.50 385.90 397.00 379.40 396.40 374.00 C 395.60 366.90 392.90 366.50 392.10 367.80 C 391.40 369.10 392.00 376.70 391.20 383.70 C 391.00 385.80 390.70 387.70 390.50 389.50 Z" fill="#ffa245" fill-rule="nonzero" group-id="19,32" id="XMLID_170_" node-id="109" stroke="none" target-height="23" target-width="6.5" target-x="390.5" target-y="366.5"></path><path d="M 355.20 386.70 C 356.80 387.40 358.60 387.90 360.60 388.40 C 360.70 386.50 360.90 384.20 361.20 381.80 C 361.90 374.80 364.10 367.50 363.60 366.10 C 363.20 364.70 360.40 364.40 358.10 371.20 C 356.10 377.50 355.30 385.60 355.20 386.70 Z" fill="#ffa245" fill-rule="nonzero" group-id="19,32" id="XMLID_165_" node-id="110" stroke="none" target-height="24" target-width="8.899994" target-x="355.2" target-y="364.4"></path><path d="M 374.10 389.80 C 375.30 389.80 376.60 389.90 378.00 389.90 C 379.00 389.90 379.90 389.90 380.90 389.90 C 380.90 387.20 380.90 383.60 381.00 380.30 C 381.20 373.80 381.30 369.60 379.40 369.20 C 377.40 368.80 375.40 376.10 374.60 383.70 C 374.30 386.30 374.20 388.30 374.10 389.80 Z" fill="#ffa245" fill-rule="nonzero" group-id="19,32" id="XMLID_164_" node-id="111" stroke="none" target-height="21.100006" target-width="7.1999817" target-x="374.1" target-y="368.8"></path></g></g></svg>