<?xml version="1.0" standalone="no"?><!DOCTYPE svg PUBLIC "-//W3C//DTD SVG 1.1//EN" "http://www.w3.org/Graphics/SVG/1.1/DTD/svg11.dtd"><svg height="1024" node-id="1" sillyvg="true" template-height="1024" template-width="1024" version="1.1" viewBox="0 0 1024 1024" width="1024" xmlns="http://www.w3.org/2000/svg" xmlns:xlink="http://www.w3.org/1999/xlink"><defs node-id="275"></defs><g node-id="1015"><g node-id="1088"><g node-id="1161"><path d="M 893.45 640.10 L 893.45 639.90 L 862.65 639.90 L 862.65 640.10 L 862.13 647.12 L 860.59 653.62 L 858.04 659.71 L 854.46 665.45 L 849.75 670.90 L 843.92 675.87 L 837.83 679.54 L 831.44 682.04 L 824.65 683.40 L 824.65 714.50 L 831.34 713.64 L 837.55 712.30 L 845.85 709.30 L 855.78 704.38 L 865.25 698.40 L 872.38 691.92 L 878.60 684.57 L 883.95 676.30 L 888.11 667.76 L 891.07 658.93 L 892.85 649.74 L 893.45 640.10 Z" fill="#ffa444" fill-rule="nonzero" group-id="1,74,147" node-id="283" stroke="none" target-height="74.599976" target-width="68.80005" target-x="824.64996" target-y="639.9"></path></g></g></g><g node-id="1016"><g node-id="1089"><g node-id="1162"><path d="M 824.65 565.40 L 824.65 596.30 L 831.61 597.76 L 838.03 600.32 L 844.03 604.00 L 849.65 608.90 L 854.40 614.39 L 858.01 620.18 L 860.57 626.30 L 862.12 632.84 L 862.65 639.90 L 893.45 639.90 L 892.99 631.16 L 891.64 622.91 L 889.42 615.10 L 886.33 607.67 L 882.36 600.57 L 877.45 593.75 L 871.55 587.20 L 864.66 581.00 L 857.45 575.90 L 849.90 571.82 L 841.96 568.71 L 833.57 566.57 L 824.65 565.40 Z" fill="#c5b3cb" fill-rule="nonzero" group-id="2,75,148" node-id="294" stroke="none" target-height="74.5" target-width="68.80005" target-x="824.64996" target-y="565.4"></path></g></g></g><g node-id="1017"><g node-id="1090"><g node-id="1163"><path d="M 837.55 712.30 L 859.05 747.30 L 885.35 731.30 L 865.25 698.40 L 855.78 704.38 L 845.85 709.30 L 837.55 712.30 Z" fill="#fb9b6e" fill-rule="nonzero" group-id="3,76,149" node-id="305" stroke="none" target-height="48.900024" target-width="47.799988" target-x="837.55" target-y="698.4"></path></g></g></g><g node-id="1018"><g node-id="1091"><g node-id="1164"><path d="M 793.85 683.40 L 793.85 741.60 L 824.65 741.60 L 824.65 683.40 L 793.85 683.40 Z" fill="#9c7288" fill-rule="nonzero" group-id="4,77,150" node-id="316" stroke="none" target-height="58.200012" target-width="30.799988" target-x="793.85" target-y="683.4"></path></g></g></g><g node-id="1019"><g node-id="1092"><g node-id="1165"><path d="M 793.85 683.40 L 824.65 683.40 L 824.65 596.30 L 793.85 596.30 L 793.85 683.40 Z" fill="#ff7332" fill-rule="nonzero" group-id="5,78,151" node-id="327" stroke="none" target-height="87.099976" target-width="30.799988" target-x="793.85" target-y="596.30005"></path></g></g></g><g node-id="1020"><g node-id="1093"><g node-id="1166"><path d="M 824.65 596.30 L 824.65 565.40 L 818.75 565.20 L 793.85 565.20 L 793.85 596.30 L 824.65 596.30 Z" fill="#fce2d5" fill-rule="nonzero" group-id="6,79,152" node-id="338" stroke="none" target-height="31.100037" target-width="30.799988" target-x="793.85" target-y="565.2"></path></g></g></g><g node-id="1021"><g node-id="1094"><g node-id="1167"><path d="M 485.85 670.90 L 480.02 675.87 L 473.93 679.54 L 467.54 682.04 L 460.75 683.40 L 460.75 714.50 L 467.53 713.64 L 473.75 712.30 L 482.05 709.30 L 491.97 704.38 L 501.35 698.40 L 508.48 691.97 L 514.73 684.63 L 520.15 676.30 L 524.31 667.76 L 527.27 658.93 L 529.05 649.74 L 529.65 640.10 L 529.65 639.90 L 498.85 639.90 L 498.85 640.10 L 498.32 647.07 L 496.78 653.55 L 494.22 659.63 L 490.61 665.40 L 485.85 670.90 Z" fill="#ff7332" fill-rule="nonzero" group-id="7,80,153" node-id="349" stroke="none" target-height="74.599976" target-width="68.89996" target-x="460.75" target-y="639.9"></path></g></g></g><g node-id="1022"><g node-id="1095"><g node-id="1168"><path d="M 460.75 565.40 L 460.75 596.30 L 467.65 597.75 L 474.08 600.30 L 480.13 603.99 L 485.85 608.90 L 490.56 614.35 L 494.15 620.10 L 496.71 626.23 L 498.29 632.80 L 498.85 639.90 L 529.65 639.90 L 529.16 631.12 L 527.79 622.85 L 525.56 615.03 L 522.47 607.60 L 518.50 600.50 L 513.62 593.72 L 507.75 587.20 L 500.86 581.00 L 493.65 575.90 L 486.09 571.82 L 478.13 568.72 L 469.70 566.57 L 460.75 565.40 Z" fill="#fb9b6e" fill-rule="nonzero" group-id="8,81,154" node-id="360" stroke="none" target-height="74.5" target-width="68.89996" target-x="460.75" target-y="565.4"></path></g></g></g><g node-id="1023"><g node-id="1096"><g node-id="1169"><path d="M 482.05 709.30 L 473.75 712.30 L 495.25 747.30 L 521.55 731.30 L 501.35 698.40 L 491.97 704.38 L 482.05 709.30 Z" fill="#9c7288" fill-rule="nonzero" group-id="9,82,155" node-id="371" stroke="none" target-height="48.900024" target-width="47.799988" target-x="473.75" target-y="698.4"></path></g></g></g><g node-id="1024"><g node-id="1097"><g node-id="1170"><path d="M 460.75 683.40 L 429.95 683.40 L 429.95 741.60 L 460.75 741.60 L 460.75 683.40 Z" fill="#ffa444" fill-rule="nonzero" group-id="10,83,156" node-id="382" stroke="none" target-height="58.200012" target-width="30.800018" target-x="429.94998" target-y="683.4"></path></g></g></g><g node-id="1025"><g node-id="1098"><g node-id="1171"><path d="M 460.75 596.30 L 429.95 596.30 L 429.95 683.40 L 460.75 683.40 L 460.75 596.30 Z" fill="#c5b3cb" fill-rule="nonzero" group-id="11,84,157" node-id="393" stroke="none" target-height="87.099976" target-width="30.800018" target-x="429.94998" target-y="596.30005"></path></g></g></g><g node-id="1026"><g node-id="1099"><g node-id="1172"><path d="M 460.75 565.40 L 454.95 565.20 L 429.95 565.20 L 429.95 596.30 L 460.75 596.30 L 460.75 565.40 Z" fill="#9c7288" fill-rule="nonzero" group-id="12,85,158" node-id="404" stroke="none" target-height="31.100037" target-width="30.800018" target-x="429.94998" target-y="565.2"></path></g></g></g><g node-id="1027"><g node-id="1100"><g node-id="1173"><path d="M 749.25 656.40 L 749.25 656.30 L 718.15 656.30 L 718.15 656.40 L 717.70 664.08 L 716.40 671.26 L 714.26 678.00 L 711.29 684.36 L 707.45 690.40 L 732.55 708.70 L 737.66 700.87 L 741.81 692.75 L 745.04 684.30 L 747.36 675.46 L 748.77 666.18 L 749.25 656.40 Z" fill="#c5b3cb" fill-rule="nonzero" group-id="13,86,159" node-id="415" stroke="none" target-height="52.399963" target-width="41.799988" target-x="707.45" target-y="656.30005"></path></g></g></g><g node-id="1028"><g node-id="1101"><g node-id="1174"><path d="M 722.65 592.40 L 714.66 585.23 L 706.36 579.26 L 697.72 574.44 L 688.69 570.69 L 679.22 568.00 L 669.23 566.36 L 658.65 565.80 L 658.35 565.80 L 658.35 597.00 L 658.65 597.00 L 666.76 597.50 L 674.34 598.95 L 681.47 601.35 L 688.21 604.68 L 694.63 609.01 L 700.75 614.40 L 706.14 620.49 L 710.47 626.88 L 713.80 633.59 L 716.20 640.68 L 717.65 648.23 L 718.15 656.30 L 749.25 656.30 L 748.69 645.72 L 747.05 635.73 L 744.36 626.27 L 740.61 617.26 L 735.78 608.64 L 729.82 600.36 L 722.65 592.40 Z" fill="#fb9b6e" fill-rule="nonzero" group-id="14,87,160" node-id="426" stroke="none" target-height="90.5" target-width="90.900024" target-x="658.35" target-y="565.80005"></path></g></g></g><g node-id="1029"><g node-id="1102"><g node-id="1175"><path d="M 707.45 690.40 L 704.28 694.47 L 700.75 698.30 L 694.63 703.69 L 688.21 708.02 L 681.47 711.35 L 674.34 713.75 L 666.76 715.20 L 658.65 715.70 L 658.35 715.70 L 658.35 746.70 L 658.65 746.70 L 669.23 746.14 L 679.22 744.51 L 688.70 741.82 L 697.73 738.09 L 706.37 733.28 L 714.66 727.34 L 722.65 720.20 L 728.05 714.39 L 732.55 708.70 L 707.45 690.40 Z" fill="#ffa444" fill-rule="nonzero" group-id="15,88,161" node-id="437" stroke="none" target-height="56.299988" target-width="74.20001" target-x="658.35" target-y="690.4"></path></g></g></g><g node-id="1030"><g node-id="1103"><g node-id="1176"><path d="M 658.35 746.70 L 658.35 715.70 L 650.38 715.18 L 642.93 713.71 L 635.90 711.31 L 629.25 707.98 L 622.91 703.67 L 616.85 698.30 L 611.35 692.10 L 575.65 692.10 L 579.34 699.66 L 583.77 706.85 L 588.96 713.69 L 594.95 720.20 L 602.79 727.31 L 610.95 733.22 L 619.48 738.03 L 628.42 741.76 L 637.83 744.46 L 647.78 746.12 L 658.35 746.70 Z" fill="#9c7288" fill-rule="nonzero" group-id="16,89,162" node-id="448" stroke="none" target-height="54.599976" target-width="82.70001" target-x="575.64996" target-y="692.10004"></path></g></g></g><g node-id="1031"><g node-id="1104"><g node-id="1177"><path d="M 658.35 597.00 L 658.35 565.80 L 647.82 566.41 L 637.90 568.09 L 628.50 570.81 L 619.56 574.58 L 611.01 579.41 L 602.82 585.35 L 594.95 592.50 L 590.28 597.50 L 586.25 602.50 L 611.25 620.70 L 614.12 617.19 L 616.85 614.40 L 622.92 609.00 L 629.26 604.67 L 635.91 601.33 L 642.93 598.95 L 650.39 597.49 L 658.35 597.00 Z" fill="#ff7332" fill-rule="nonzero" group-id="17,90,163" node-id="459" stroke="none" target-height="54.899963" target-width="72.099976" target-x="586.25" target-y="565.80005"></path></g></g></g><g node-id="1032"><g node-id="1105"><g node-id="1178"><path d="M 611.35 692.10 L 607.03 685.74 L 603.69 679.05 L 601.30 671.98 L 599.85 664.45 L 599.35 656.40 L 599.84 648.30 L 601.29 640.75 L 603.67 633.68 L 606.97 627.01 L 611.25 620.70 L 586.25 602.50 L 581.23 609.95 L 577.08 617.67 L 573.76 625.67 L 571.25 634.00 L 569.55 642.70 L 568.88 649.52 L 568.65 656.40 L 569.11 666.14 L 570.44 675.30 L 572.63 683.93 L 575.65 692.10 L 611.35 692.10 Z" fill="#fce2d5" fill-rule="nonzero" group-id="18,91,164" node-id="470" stroke="none" target-height="89.60004" target-width="42.700012" target-x="568.64996" target-y="602.5"></path></g></g></g><g node-id="1033"><g node-id="1106"><g node-id="1179"><path d="M 313.35 683.40 L 313.35 714.50 L 320.13 713.64 L 326.35 712.30 L 334.65 709.30 L 344.57 704.38 L 353.95 698.40 L 359.43 693.61 L 364.36 688.34 L 368.76 682.59 L 372.65 676.30 L 376.85 667.81 L 379.84 659.00 L 381.64 649.79 L 382.25 640.10 L 382.25 639.90 L 351.45 639.90 L 351.45 640.10 L 350.92 647.07 L 349.38 653.55 L 346.82 659.63 L 343.21 665.40 L 338.45 670.90 L 332.62 675.87 L 326.53 679.54 L 320.14 682.04 L 313.35 683.40 Z" fill="#9c7288" fill-rule="nonzero" group-id="19,92,165" node-id="481" stroke="none" target-height="74.599976" target-width="68.900024" target-x="313.34998" target-y="639.9"></path></g></g></g><g node-id="1034"><g node-id="1107"><g node-id="1180"><path d="M 313.35 565.40 L 313.35 596.30 L 320.25 597.75 L 326.68 600.30 L 332.73 603.99 L 338.45 608.90 L 343.16 614.35 L 346.75 620.10 L 349.31 626.23 L 350.89 632.80 L 351.45 639.90 L 382.25 639.90 L 381.76 631.12 L 380.39 622.85 L 378.16 615.03 L 375.07 607.60 L 371.10 600.50 L 366.22 593.72 L 360.35 587.20 L 353.42 581.00 L 346.19 575.89 L 338.62 571.81 L 330.66 568.71 L 322.26 566.57 L 313.35 565.40 Z" fill="#c5b3cb" fill-rule="nonzero" group-id="20,93,166" node-id="492" stroke="none" target-height="74.5" target-width="68.900024" target-x="313.34998" target-y="565.4"></path></g></g></g><g node-id="1035"><g node-id="1108"><g node-id="1181"><path d="M 326.35 712.30 L 347.85 747.30 L 374.05 731.30 L 353.95 698.40 L 344.57 704.38 L 334.65 709.30 L 326.35 712.30 Z" fill="#fb9b6e" fill-rule="nonzero" group-id="21,94,167" node-id="503" stroke="none" target-height="48.900024" target-width="47.700012" target-x="326.34998" target-y="698.4"></path></g></g></g><g node-id="1036"><g node-id="1109"><g node-id="1182"><path d="M 313.35 683.40 L 282.55 683.40 L 282.55 741.60 L 313.35 741.60 L 313.35 683.40 Z" fill="#ff7332" fill-rule="nonzero" group-id="22,95,168" node-id="514" stroke="none" target-height="58.200012" target-width="30.799988" target-x="282.55" target-y="683.4"></path></g></g></g><g node-id="1037"><g node-id="1110"><g node-id="1183"><path d="M 313.35 596.30 L 282.55 596.30 L 282.55 683.40 L 313.35 683.40 L 313.35 596.30 Z" fill="#ffa444" fill-rule="nonzero" group-id="23,96,169" node-id="525" stroke="none" target-height="87.099976" target-width="30.799988" target-x="282.55" target-y="596.30005"></path></g></g></g><g node-id="1038"><g node-id="1111"><g node-id="1184"><path d="M 313.35 596.30 L 313.35 565.40 L 307.45 565.20 L 282.55 565.20 L 282.55 596.30 L 313.35 596.30 Z" fill="#fce2d5" fill-rule="nonzero" group-id="24,97,170" node-id="536" stroke="none" target-height="31.100037" target-width="30.799988" target-x="282.55" target-y="565.2"></path></g></g></g><g node-id="1039"><g node-id="1112"><g node-id="1185"><path d="M 172.05 713.70 L 172.05 744.50 L 227.35 744.50 L 227.35 713.70 L 172.05 713.70 Z" fill="#ffa444" fill-rule="nonzero" group-id="25,98,171" node-id="547" stroke="none" target-height="30.799988" target-width="55.300003" target-x="172.05" target-y="713.7"></path></g></g></g><g node-id="1040"><g node-id="1113"><g node-id="1186"><path d="M 172.05 666.50 L 172.05 697.30 L 222.25 697.30 L 222.25 666.50 L 172.05 666.50 Z" fill="#fce2d5" fill-rule="nonzero" group-id="26,99,172" node-id="558" stroke="none" target-height="30.800049" target-width="50.199997" target-x="172.05" target-y="666.5"></path></g></g></g><g node-id="1041"><g node-id="1114"><g node-id="1187"><path d="M 172.05 568.00 L 172.05 598.80 L 221.85 598.80 L 221.85 568.00 L 172.05 568.00 Z" fill="#9c7288" fill-rule="nonzero" group-id="27,100,173" node-id="569" stroke="none" target-height="30.800049" target-width="49.800003" target-x="172.05" target-y="568"></path></g></g></g><g node-id="1042"><g node-id="1115"><g node-id="1188"><path d="M 140.85 696.80 L 140.85 744.50 L 172.05 744.50 L 172.05 696.80 L 140.85 696.80 Z" fill="#ff7332" fill-rule="nonzero" group-id="28,101,174" node-id="580" stroke="none" target-height="47.69995" target-width="31.199997" target-x="140.85" target-y="696.80005"></path></g></g></g><g node-id="1043"><g node-id="1116"><g node-id="1189"><path d="M 140.85 696.80 L 172.05 696.80 L 172.05 598.80 L 140.85 598.80 L 140.85 696.80 Z" fill="#c5b3cb" fill-rule="nonzero" group-id="29,102,175" node-id="591" stroke="none" target-height="98" target-width="31.199997" target-x="140.85" target-y="598.80005"></path></g></g></g><g node-id="1044"><g node-id="1117"><g node-id="1190"><path d="M 172.05 598.80 L 172.05 568.00 L 140.85 568.00 L 140.85 598.80 L 172.05 598.80 Z" fill="#fb9b6e" fill-rule="nonzero" group-id="30,103,176" node-id="602" stroke="none" target-height="30.800049" target-width="31.199997" target-x="140.85" target-y="568"></path></g></g></g><g node-id="1045"><g node-id="1118"><path d="M 450.40 683.30 L 454.98 682.52 L 459.36 681.23 L 463.58 679.44 L 467.67 677.13 L 471.64 674.26 L 475.50 670.80 L 479.02 666.90 L 481.94 662.86 L 484.30 658.69 L 486.12 654.34 L 487.43 649.80 L 488.23 645.03 L 488.50 640.00 L 488.50 639.80 L 488.23 634.70 L 487.43 629.88 L 486.12 625.30 L 484.29 620.93 L 481.93 616.74 L 479.01 612.70 L 475.50 608.80 L 471.72 605.38 L 467.80 602.53 L 463.73 600.20 L 459.49 598.38 L 455.06 597.05 L 450.40 596.20 L 450.40 604.60" fill="none" group-id="31,104" node-id="611" stroke="#001443" stroke-linecap="butt" stroke-width="5" target-height="87.099976" target-width="38.100006" target-x="450.4" target-y="596.2"></path></g></g><g node-id="1046"><g node-id="1119"><path d="M 509.80 676.20 L 512.71 670.54 L 515.08 664.76 L 516.92 658.83 L 518.23 652.75 L 519.03 646.48 L 519.30 640.00 L 519.30 639.80 L 519.00 632.92 L 518.16 626.37 L 516.79 620.10 L 514.91 614.08 L 512.51 608.30 L 509.57 602.73 L 506.10 597.35 L 502.05 592.14 L 497.40 587.10 L 491.95 582.03 L 486.42 577.71 L 480.79 574.08 L 475.04 571.11 L 469.15 568.75 L 463.10 567.01 L 456.86 565.85 L 450.40 565.30 L 444.60 565.10 L 419.60 565.10 L 419.60 637.00 M 419.60 683.30 L 419.60 741.50 L 450.40 741.50 L 450.40 714.40 L 454.38 714.00 L 458.70 713.27 L 463.40 712.20 L 484.90 747.20 L 511.20 731.20 L 491.00 698.30 M 450.40 660.40 L 450.40 596.20 L 455.06 597.05 L 459.49 598.38 L 463.73 600.20 L 467.80 602.53 L 471.72 605.38 L 475.50 608.80 L 479.01 612.70 L 481.93 616.74 L 484.29 620.93 L 486.12 625.30 L 487.43 629.88 L 488.23 634.70 L 488.50 639.80 L 488.50 640.00 L 488.23 645.03 L 487.43 649.80 L 486.12 654.34 L 484.30 658.69 L 481.94 662.86 L 479.02 666.90 L 475.50 670.80" fill="none" group-id="32,105" node-id="619" stroke="#001443" stroke-linecap="butt" stroke-width="5" target-height="182.10004" target-width="99.70001" target-x="419.59998" target-y="565.1"></path></g></g><g node-id="1047"><g node-id="1120"><path d="M 697.10 690.30 L 700.36 685.29 L 703.01 680.06 L 705.08 674.58 L 706.58 668.82 L 707.49 662.74 L 707.80 656.30 L 707.52 650.16 L 706.69 644.34 L 705.33 638.80 L 703.45 633.50 L 701.04 628.42 L 698.08 623.54 L 694.54 618.84 L 690.40 614.30 L 685.86 610.16 L 681.16 606.63 L 676.27 603.67 L 671.19 601.25 L 665.88 599.37 L 660.31 598.01 L 654.47 597.18 L 648.30 596.90" fill="none" group-id="33,106" node-id="627" stroke="#001443" stroke-linecap="butt" stroke-width="5" target-height="93.39996" target-width="59.5" target-x="648.3" target-y="596.9"></path></g></g><g node-id="1048"><g node-id="1121"><path d="M 600.90 620.60 L 597.78 625.04 L 595.15 629.66 L 593.00 634.49 L 591.31 639.53 L 590.10 644.83 L 589.35 650.41 L 589.10 656.30 L 589.35 662.15 L 590.10 667.70 L 591.32 672.99 L 593.02 678.04 L 595.19 682.88 L 597.84 687.52 L 601.00 692.00 L 603.98 695.52 L 606.50 698.20 L 611.05 702.36 L 615.75 705.90 L 620.60 708.86 L 625.63 711.27 L 630.86 713.15 L 636.30 714.50 L 642.01 715.32 L 648.00 715.60" fill="none" group-id="34,107" node-id="635" stroke="#001443" stroke-linecap="butt" stroke-width="5" target-height="95" target-width="58.900024" target-x="589.1" target-y="620.6"></path></g></g><g node-id="1049"><g node-id="1122"><path d="M 682.70 572.30 L 676.56 570.07 L 670.17 568.27 L 663.50 566.90 L 656.11 566.00 L 648.30 565.70 L 648.00 565.70 L 643.80 565.82 L 638.90 566.20 L 631.98 567.12 L 625.33 568.54 L 618.93 570.44 L 612.75 572.82 L 606.78 575.69 L 600.99 579.07 L 595.37 582.96 L 589.91 587.39 L 584.60 592.40 L 580.22 597.10 L 575.90 602.40 L 571.65 608.59 L 568.02 614.96 L 564.96 621.53 L 562.48 628.31 L 560.56 635.32 L 559.20 642.60 M 648.30 596.90 L 654.47 597.18 L 660.31 598.01 L 665.88 599.37 L 671.19 601.25 L 676.27 603.67 L 681.16 606.63 L 685.86 610.16 L 690.40 614.30 L 694.54 618.84 L 698.08 623.54 L 701.04 628.43 L 703.45 633.50 L 705.33 638.80 L 706.69 644.34 L 707.52 650.16 L 707.80 656.30 L 707.49 662.74 L 706.58 668.82 L 705.08 674.58 L 703.01 680.06 L 700.36 685.29 L 697.10 690.30 M 558.40 661.70 L 558.97 668.18 L 559.96 674.43 L 561.34 680.48 L 563.12 686.33 L 565.30 692.00 L 568.15 697.99 L 571.49 703.78 L 575.33 709.39 L 579.69 714.82 L 584.60 720.10 L 590.05 725.21 L 595.66 729.71 L 601.44 733.65 L 607.40 737.05 L 613.55 739.92 L 619.92 742.28 L 626.52 744.14 L 633.38 745.48 L 640.53 746.31 L 648.00 746.60 L 648.30 746.60 L 655.83 746.32 L 663.04 745.51 L 669.96 744.18 L 676.63 742.33 L 683.05 739.97 L 689.26 737.10 L 695.28 733.70 L 701.12 729.74 L 706.79 725.22 L 712.30 720.10 L 716.00 716.21 L 719.30 712.38 L 722.20 708.60 L 726.15 702.72 L 729.56 696.70 L 732.42 690.50 L 734.77 684.12 L 736.60 677.53 L 737.93 670.72 L 738.73 663.65 L 739.00 656.30 L 738.71 648.80 L 737.88 641.61 L 736.52 634.70 L 734.66 628.05 L 732.29 621.62 L 729.39 615.41 L 725.97 609.38 L 722.00 603.53 L 717.45 597.84 L 712.30 592.30 M 681.60 705.60 L 676.67 708.64 L 671.54 711.12 L 666.16 713.06 L 660.52 714.46 L 654.58 715.31 L 648.30 715.60 L 648.00 715.60 L 642.01 715.32 L 636.30 714.50 L 630.86 713.15 L 625.63 711.27 L 620.60 708.86 L 615.75 705.90 L 611.05 702.36 L 606.50 698.20 L 603.98 695.52 L 601.00 692.00 L 597.84 687.52 L 595.19 682.88 L 593.02 678.04 L 591.33 672.99 L 590.10 667.70 L 589.35 662.15 L 589.10 656.30 L 589.35 650.41 L 590.10 644.83 L 591.31 639.53 L 593.00 634.49 L 595.15 629.66 L 597.78 625.04 L 600.90 620.60" fill="none" group-id="35,108" node-id="643" stroke="#001443" stroke-linecap="butt" stroke-width="5" target-height="180.89996" target-width="180.60004" target-x="558.39996" target-y="565.7"></path></g></g><g node-id="1050"><g node-id="1123"><path d="M 303.00 596.20 L 303.00 683.30 L 307.58 682.52 L 311.96 681.23 L 316.18 679.44 L 320.27 677.13 L 324.24 674.26 L 328.10 670.80 L 331.62 666.93 L 334.53 662.92 L 336.89 658.75 L 338.72 654.41 L 340.03 649.86 L 340.83 645.07 L 341.10 640.00 L 341.10 639.80 L 340.80 634.67 L 339.98 629.82 L 338.66 625.23 L 336.83 620.85 L 334.48 616.67 L 331.58 612.66 L 328.10 608.80" fill="none" group-id="36,109" node-id="651" stroke="#001443" stroke-linecap="butt" stroke-width="5" target-height="87.099976" target-width="38.099976" target-x="303" target-y="596.2"></path></g></g><g node-id="1051"><g node-id="1124"><path d="M 273.70 741.50 L 304.50 741.50 L 304.50 714.40 L 308.41 714.00 L 312.70 713.28 L 317.40 712.20 L 338.90 747.20 M 273.70 565.10 L 273.70 718.00 M 337.20 621.50 L 338.89 625.75 L 340.11 630.20 L 340.85 634.87 L 341.10 639.80 L 341.10 640.00 L 340.83 645.07 L 340.03 649.86 L 338.72 654.41 L 336.89 658.75 L 334.53 662.92 L 331.62 666.93 L 328.10 670.80 L 324.24 674.26 L 320.27 677.13 L 316.18 679.44 L 311.96 681.23 L 307.58 682.52 L 303.00 683.30 L 303.00 596.20 M 365.20 731.20 L 345.10 698.30 L 349.49 694.51 L 353.54 690.42 L 357.28 686.01 L 360.69 681.28 L 363.80 676.20 L 366.71 670.54 L 369.08 664.76 L 370.92 658.83 L 372.23 652.75 L 373.03 646.48 L 373.30 640.00 L 373.30 639.80 L 373.02 632.95 L 372.20 626.42 L 370.84 620.17 L 368.97 614.16 L 366.57 608.38 L 363.63 602.80 L 360.15 597.40 L 356.08 592.17 L 351.40 587.10 L 346.26 582.34 L 340.95 578.22 L 335.45 574.68 L 329.75 571.72 L 323.84 569.30 L 317.68 567.42 L 311.24 566.09 L 304.50 565.30" fill="none" group-id="37,110" node-id="659" stroke="#001443" stroke-linecap="butt" stroke-width="5" target-height="182.10004" target-width="99.600006" target-x="273.69998" target-y="565.1"></path></g></g><g node-id="1052"><g node-id="1125"><path d="M 812.80 596.20 L 812.80 683.30 L 817.38 682.52 L 821.76 681.23 L 825.98 679.44 L 830.07 677.13 L 834.04 674.26 L 837.90 670.80 L 841.42 666.90 L 844.34 662.86 L 846.70 658.69 L 848.52 654.34 L 849.83 649.80 L 850.63 645.03 L 850.90 640.00 L 850.90 639.80 L 850.60 634.67 L 849.78 629.82 L 848.46 625.23 L 846.63 620.85 L 844.28 616.67 L 841.38 612.66 L 837.90 608.80" fill="none" group-id="38,111" node-id="667" stroke="#001443" stroke-linecap="butt" stroke-width="5" target-height="87.099976" target-width="38.099976" target-x="812.8" target-y="596.2"></path></g></g><g node-id="1053"><g node-id="1126"><path d="M 875.00 731.20 L 854.90 698.30 L 859.29 694.51 L 863.34 690.42 L 867.08 686.01 L 870.49 681.28 L 873.60 676.20 L 876.51 670.54 L 878.88 664.76 L 880.72 658.83 L 882.03 652.75 L 882.83 646.48 L 883.10 640.00 L 883.10 639.80 L 882.82 632.95 L 882.00 626.42 L 880.64 620.17 L 878.77 614.16 L 876.37 608.38 L 873.43 602.80 L 869.95 597.40 L 865.88 592.17 L 861.20 587.10 L 856.06 582.34 L 850.75 578.22 L 845.25 574.68 L 839.55 571.72 L 833.64 569.30 L 827.48 567.42 L 821.04 566.09 L 814.30 565.30 M 847.00 621.50 L 848.64 625.59 L 849.84 629.97 L 850.60 634.70 L 850.90 639.80 L 850.90 640.00 L 850.63 645.03 L 849.83 649.80 L 848.52 654.34 L 846.70 658.69 L 844.34 662.86 L 841.42 666.90 L 837.90 670.80 L 834.04 674.26 L 830.07 677.13 L 825.98 679.44 L 821.76 681.23 L 817.38 682.52 L 812.80 683.30 L 812.80 596.20 M 783.50 741.50 L 814.30 741.50 L 814.30 714.40 L 818.21 714.00 L 822.50 713.28 L 827.20 712.20 L 848.70 747.20 M 783.50 565.10 L 783.50 718.00" fill="none" group-id="39,112" node-id="675" stroke="#001443" stroke-linecap="butt" stroke-width="5" target-height="182.10004" target-width="99.599976" target-x="783.5" target-y="565.1"></path></g></g><g node-id="1054"><g node-id="1127"><path d="M 161.70 744.40 L 217.10 744.40 L 217.10 713.60 L 161.70 713.60 L 161.70 697.20 L 180.50 697.20" fill="none" group-id="40,113" node-id="683" stroke="#001443" stroke-linecap="butt" stroke-width="5" target-height="47.200012" target-width="55.40001" target-x="161.7" target-y="697.2"></path></g></g><g node-id="1055"><g node-id="1128"><path d="M 130.60 598.70 L 130.60 744.40" fill="none" group-id="41,114" node-id="691" stroke="#001443" stroke-linecap="butt" stroke-width="5" target-height="145.70001" target-width="0" target-x="130.6" target-y="598.7"></path></g></g><g node-id="1056"><g node-id="1129"><path d="M 211.90 697.20 L 211.90 666.40 L 161.70 666.40 L 161.70 598.70 L 211.50 598.70 L 211.50 567.90 L 130.60 567.90" fill="none" group-id="42,115" node-id="699" stroke="#001443" stroke-linecap="butt" stroke-width="5" target-height="129.29999" target-width="81.3" target-x="130.6" target-y="567.9"></path></g></g><g node-id="1057"><g node-id="1130"><g node-id="1191"><path d="M 640.35 353.40 L 639.75 352.80 L 564.15 352.80 L 569.26 357.69 L 573.73 363.01 L 577.59 368.76 L 580.85 375.00 L 583.57 381.75 L 585.50 388.66 L 586.66 395.76 L 587.05 403.10 L 586.65 410.49 L 585.47 417.64 L 583.51 424.59 L 580.75 431.40 L 577.40 437.64 L 573.46 443.41 L 568.92 448.76 L 563.75 453.70 L 639.35 453.70 L 640.35 452.70 L 640.35 353.40 Z" fill="#ff7332" fill-rule="nonzero" group-id="43,116,177" node-id="709" stroke="none" target-height="100.899994" target-width="76.599976" target-x="563.75" target-y="352.8"></path></g></g></g><g node-id="1058"><g node-id="1131"><g node-id="1192"><path d="M 545.95 341.60 L 552.02 344.47 L 558.05 348.18 L 564.05 352.80 L 639.45 352.80 L 569.95 283.40 L 545.95 341.60 Z" fill="#fce2d5" fill-rule="nonzero" group-id="44,117,178" node-id="720" stroke="none" target-height="69.399994" target-width="93.5" target-x="545.95" target-y="283.4"></path></g></g></g><g node-id="1059"><g node-id="1132"><g node-id="1193"><path d="M 563.45 451.90 L 557.71 456.30 L 551.62 459.99 L 545.15 463.00 L 569.35 521.60 L 569.75 521.60 L 639.45 451.90 L 563.45 451.90 Z" fill="#9c7288" fill-rule="nonzero" group-id="45,118,179" node-id="731" stroke="none" target-height="69.70004" target-width="94.30005" target-x="545.14996" target-y="451.9"></path></g></g></g><g node-id="1060"><g node-id="1133"><g node-id="1194"><path d="M 569.95 283.20 L 569.85 283.10 L 470.75 283.10 L 494.75 341.30 L 503.07 338.52 L 511.55 336.86 L 520.25 336.30 L 529.15 336.87 L 537.69 338.57 L 545.95 341.40 L 569.95 283.20 Z" fill="#ffa444" fill-rule="nonzero" group-id="46,119,180" node-id="742" stroke="none" target-height="58.299988" target-width="99.20001" target-x="470.75" target-y="283.1"></path></g></g></g><g node-id="1061"><g node-id="1134"><g node-id="1195"><path d="M 545.45 463.50 L 537.20 466.23 L 528.82 467.86 L 520.25 468.40 L 511.81 467.86 L 503.50 466.23 L 495.25 463.50 L 471.25 521.60 L 569.45 521.60 L 545.45 463.50 Z" fill="#fb9b6e" fill-rule="nonzero" group-id="47,120,181" node-id="753" stroke="none" target-height="58.100037" target-width="98.20001" target-x="471.25" target-y="463.5"></path></g></g></g><g node-id="1062"><g node-id="1135"><g node-id="1196"><path d="M 470.85 521.60 L 471.45 521.60 L 495.55 463.10 L 489.06 459.99 L 482.94 456.26 L 477.15 451.90 L 401.15 451.90 L 470.85 521.60 Z" fill="#fce2d5" fill-rule="nonzero" group-id="48,121,182" node-id="764" stroke="none" target-height="69.70004" target-width="94.399994" target-x="401.15" target-y="451.9"></path></g></g></g><g node-id="1063"><g node-id="1136"><g node-id="1197"><path d="M 470.75 283.30 L 401.15 352.80 L 476.55 352.80 L 482.22 348.39 L 488.28 344.63 L 494.75 341.50 L 470.75 283.30 Z" fill="#c5b3cb" fill-rule="nonzero" group-id="49,122,183" node-id="775" stroke="none" target-height="69.5" target-width="93.600006" target-x="401.15" target-y="283.3"></path></g></g></g><g node-id="1064"><g node-id="1137"><g node-id="1198"><path d="M 400.65 352.80 L 400.05 353.40 L 400.05 452.70 L 400.95 453.70 L 476.55 453.70 L 471.38 448.76 L 466.84 443.41 L 462.90 437.64 L 459.55 431.40 L 456.79 424.59 L 454.83 417.64 L 453.65 410.49 L 453.25 403.10 L 453.64 395.76 L 454.80 388.66 L 456.73 381.75 L 459.45 375.00 L 462.76 368.75 L 466.63 363.00 L 471.08 357.69 L 476.15 352.80 L 400.65 352.80 Z" fill="#c5b3cb" fill-rule="nonzero" group-id="50,123,184" node-id="786" stroke="none" target-height="100.899994" target-width="76.5" target-x="400.05" target-y="352.8"></path></g></g></g><g node-id="1065"><g node-id="1138"><g node-id="1199"><path d="M 280.75 406.00 L 280.75 453.70 L 346.85 453.70 L 346.85 406.00 L 280.75 406.00 Z" fill="#fb9b6e" fill-rule="nonzero" group-id="51,124,185" node-id="797" stroke="none" target-height="47.69998" target-width="66.099976" target-x="280.75" target-y="406"></path></g></g></g><g node-id="1066"><g node-id="1139"><g node-id="1200"><path d="M 280.75 453.70 L 280.75 514.20 L 328.45 514.20 L 328.45 453.70 L 280.75 453.70 Z" fill="#ff7332" fill-rule="nonzero" group-id="52,125,186" node-id="808" stroke="none" target-height="60.50003" target-width="47.69998" target-x="280.75" target-y="453.69998"></path></g></g></g><g node-id="1067"><g node-id="1140"><g node-id="1201"><path d="M 328.45 367.50 L 280.75 367.50 L 280.75 406.00 L 328.45 406.00 L 328.45 367.50 Z" fill="#9c7288" fill-rule="nonzero" group-id="53,126,187" node-id="819" stroke="none" target-height="38.5" target-width="47.69998" target-x="280.75" target-y="367.5"></path></g></g></g><g node-id="1068"><g node-id="1141"><g node-id="1202"><path d="M 328.45 367.50 L 328.45 279.40 L 280.75 279.40 L 280.75 367.50 L 328.45 367.50 Z" fill="#c5b3cb" fill-rule="nonzero" group-id="54,127,188" node-id="830" stroke="none" target-height="88.100006" target-width="47.69998" target-x="280.75" target-y="279.4"></path></g></g></g><g node-id="1069"><g node-id="1142"><g node-id="1203"><path d="M 280.75 406.00 L 250.05 406.00 L 212.35 453.70 L 280.75 453.70 L 280.75 406.00 Z" fill="#c5b3cb" fill-rule="nonzero" group-id="55,128,189" node-id="841" stroke="none" target-height="47.69998" target-width="68.399994" target-x="212.35" target-y="406"></path></g></g></g><g node-id="1070"><g node-id="1143"><g node-id="1204"><path d="M 280.75 366.60 L 280.75 278.50 L 186.55 406.00 L 249.75 406.00 L 280.75 366.60 Z" fill="#fce2d5" fill-rule="nonzero" group-id="56,129,190" node-id="852" stroke="none" target-height="127.5" target-width="94.2" target-x="186.55" target-y="278.5"></path></g></g></g><g node-id="1071"><g node-id="1144"><g node-id="1205"><path d="M 249.95 406.00 L 187.25 406.00 L 151.95 453.70 L 212.25 453.70 L 249.95 406.00 Z" fill="#ffa444" fill-rule="nonzero" group-id="57,130,191" node-id="863" stroke="none" target-height="47.69998" target-width="98" target-x="151.95" target-y="406"></path></g></g></g><g node-id="1072"><g node-id="1145"><path d="M 261.70 364.80 L 230.70 404.20 L 261.70 404.20 L 261.70 364.80 Z" fill="none" group-id="58,131" node-id="872" stroke="#001443" stroke-linecap="butt" stroke-width="5" target-height="39.400024" target-width="30.999985" target-x="230.7" target-y="364.8"></path></g></g><g node-id="1073"><g node-id="1146"><path d="M 502.50 335.20 L 497.15 335.41 L 491.95 336.02 L 486.87 337.04 L 481.89 338.47 L 477.00 340.30 L 472.11 342.58 L 467.45 345.22 L 463.02 348.23 L 458.80 351.60 L 454.69 355.48 L 451.00 359.61 L 447.69 364.02 L 444.76 368.71 L 442.20 373.70 L 439.96 379.09 L 438.23 384.58 L 437.00 390.18 L 436.25 395.91 L 436.00 401.80 L 436.25 407.73 L 437.01 413.50 L 438.27 419.14 L 440.03 424.67 L 442.30 430.10 L 444.90 435.13 L 447.88 439.84 L 451.25 444.27 L 455.02 448.42 L 459.20 452.30 L 463.52 455.68 L 467.99 458.65 L 472.61 461.22 L 477.40 463.40" fill="none" group-id="59,132" node-id="880" stroke="#001443" stroke-linecap="butt" stroke-width="5" target-height="128.19998" target-width="66.5" target-x="436" target-y="335.2"></path></g></g><g node-id="1074"><g node-id="1147"><path d="M 502.50 468.30 L 508.90 468.00 L 515.21 467.08 L 521.47 465.56 L 527.70 463.40 L 532.72 461.06 L 537.39 458.43 L 541.75 455.51 L 545.80 452.30 L 549.99 448.42 L 553.76 444.27 L 557.15 439.85 L 560.16 435.13 L 562.80 430.10 L 565.07 424.67 L 566.83 419.14 L 568.09 413.50 L 568.85 407.73 L 569.10 401.80 L 568.85 395.91 L 568.10 390.18 L 566.87 384.58 L 565.14 379.09 L 562.90 373.70 L 560.31 368.75 L 557.36 364.08 L 554.03 359.67 L 550.32 355.52 L 546.20 351.60" fill="none" group-id="60,133" node-id="888" stroke="#001443" stroke-linecap="butt" stroke-width="5" target-height="116.69998" target-width="66.599976" target-x="502.5" target-y="351.6"></path></g></g><g node-id="1075"><g node-id="1148"><path d="M 477.40 463.40 L 472.61 461.22 L 467.99 458.65 L 463.52 455.68 L 459.20 452.30 L 455.02 448.42 L 451.25 444.27 L 447.88 439.84 L 444.90 435.13 L 442.30 430.10 L 440.03 424.67 L 438.27 419.14 L 437.01 413.50 L 436.25 407.73 L 436.00 401.80 L 436.25 395.91 L 437.00 390.18 L 438.23 384.58 L 439.96 379.09 L 442.20 373.70 L 444.76 368.71 L 447.69 364.02 L 451.00 359.61 L 454.69 355.48 L 458.80 351.60 L 463.02 348.23 L 467.45 345.22 L 472.11 342.58 L 477.00 340.30 L 481.89 338.47 L 486.87 337.04 L 491.95 336.02 L 497.15 335.41 L 502.50 335.20 M 428.00 307.00 L 382.80 352.20 L 382.80 451.30 L 418.20 486.70 M 546.20 351.60 L 550.32 355.52 L 554.03 359.67 L 557.36 364.08 L 560.31 368.75 L 562.90 373.70 L 565.14 379.09 L 566.87 384.58 L 568.10 390.18 L 568.85 395.91 L 569.10 401.80 L 568.85 407.73 L 568.09 413.50 L 566.83 419.14 L 565.07 424.67 L 562.80 430.10 L 560.16 435.13 L 557.15 439.85 L 553.76 444.27 L 549.99 448.42 L 545.80 452.30 L 541.75 455.51 L 537.39 458.43 L 532.72 461.06 L 527.70 463.40 L 521.47 465.56 L 515.21 467.08 L 508.90 468.00 L 502.50 468.30 M 622.20 352.20 L 552.10 282.10 L 452.90 282.10 M 593.10 480.50 L 622.20 451.30 M 452.90 521.50 L 552.10 521.50 L 572.20 501.40" fill="none" group-id="61,134" node-id="896" stroke="#001443" stroke-linecap="butt" stroke-width="5" target-height="239.4" target-width="239.40002" target-x="382.8" target-y="282.1"></path></g></g><g node-id="1076"><g node-id="1149"><path d="M 311.50 276.70 L 261.70 276.70 L 200.00 360.20 M 167.50 404.20 L 131.90 452.30 L 261.70 452.30 L 261.70 512.90 L 309.60 512.90 L 309.60 452.30 M 261.70 404.20 L 230.70 404.20 L 261.70 364.80 L 261.70 404.20 Z M 328.30 452.30 L 328.30 404.20 L 309.60 404.20 L 309.60 364.80" fill="none" group-id="62,135" node-id="904" stroke="#001443" stroke-linecap="butt" stroke-width="5" target-height="236.20001" target-width="196.39998" target-x="131.90001" target-y="276.7"></path></g></g><g node-id="1077"><g node-id="1150"><path d="M 309.60 304.50 L 309.60 364.80" fill="none" group-id="63,136" node-id="912" stroke="#001443" stroke-linecap="butt" stroke-width="5" target-height="60.299988" target-width="0" target-x="309.59998" target-y="304.5"></path></g></g><g node-id="1078"><g node-id="1151"><g node-id="1206"><path d="M 889.55 406.00 L 823.55 406.00 L 823.55 453.70 L 889.55 453.70 L 889.55 406.00 Z" fill="#fb9b6e" fill-rule="nonzero" group-id="64,137,192" node-id="922" stroke="none" target-height="47.69998" target-width="66" target-x="823.55" target-y="406"></path></g></g></g><g node-id="1079"><g node-id="1152"><g node-id="1207"><path d="M 871.25 453.70 L 823.55 453.70 L 823.55 514.20 L 871.25 514.20 L 871.25 453.70 Z" fill="#fce2d5" fill-rule="nonzero" group-id="65,138,193" node-id="933" stroke="none" target-height="60.50003" target-width="47.700012" target-x="823.55" target-y="453.69998"></path></g></g></g><g node-id="1080"><g node-id="1153"><g node-id="1208"><path d="M 871.25 367.50 L 823.55 367.50 L 823.55 406.00 L 871.25 406.00 L 871.25 367.50 Z" fill="#9c7288" fill-rule="nonzero" group-id="66,139,194" node-id="944" stroke="none" target-height="38.5" target-width="47.700012" target-x="823.55" target-y="367.5"></path></g></g></g><g node-id="1081"><g node-id="1154"><g node-id="1209"><path d="M 871.25 279.40 L 823.55 279.40 L 823.55 367.50 L 871.25 367.50 L 871.25 279.40 Z" fill="#ff7332" fill-rule="nonzero" group-id="67,140,195" node-id="955" stroke="none" target-height="88.100006" target-width="47.700012" target-x="823.55" target-y="279.4"></path></g></g></g><g node-id="1082"><g node-id="1155"><g node-id="1210"><path d="M 823.55 453.70 L 823.55 406.00 L 792.75 406.00 L 755.15 453.70 L 823.55 453.70 Z" fill="#c5b3cb" fill-rule="nonzero" group-id="68,141,196" node-id="966" stroke="none" target-height="47.69998" target-width="68.400024" target-x="755.14996" target-y="406"></path></g></g></g><g node-id="1083"><g node-id="1156"><g node-id="1211"><path d="M 823.55 366.60 L 823.55 278.50 L 729.35 406.00 L 792.55 406.00 L 823.55 366.60 Z" fill="#ffa444" fill-rule="nonzero" group-id="69,142,197" node-id="977" stroke="none" target-height="127.5" target-width="94.20001" target-x="729.35" target-y="278.5"></path></g></g></g><g node-id="1084"><g node-id="1157"><g node-id="1212"><path d="M 755.05 453.70 L 792.65 406.00 L 729.95 406.00 L 694.75 453.70 L 755.05 453.70 Z" fill="#fce2d5" fill-rule="nonzero" group-id="70,143,198" node-id="988" stroke="none" target-height="47.69998" target-width="97.89996" target-x="694.75" target-y="406"></path></g></g></g><g node-id="1085"><g node-id="1158"><path d="M 804.50 364.80 L 773.50 404.20 L 804.50 404.20 L 804.50 364.80 Z" fill="none" group-id="71,144" node-id="997" stroke="#001443" stroke-linecap="butt" stroke-width="5" target-height="39.400024" target-width="31" target-x="773.5" target-y="364.8"></path></g></g><g node-id="1086"><g node-id="1159"><path d="M 854.20 276.70 L 804.50 276.70 L 742.80 360.20 M 871.00 452.30 L 871.00 404.20 L 852.30 404.20 L 852.30 364.80 M 710.20 404.20 L 674.70 452.30 L 804.50 452.30 L 804.50 512.90 L 852.30 512.90 L 852.30 452.30 M 773.50 404.20 L 804.50 364.80 L 804.50 404.20 L 773.50 404.20 Z" fill="none" group-id="72,145" node-id="1005" stroke="#001443" stroke-linecap="butt" stroke-width="5" target-height="236.20001" target-width="196.29999" target-x="674.7" target-y="276.7"></path></g></g><path d="M 852.40 304.50 L 852.40 364.80" fill="none" group-id="73,146" node-id="1013" stroke="#001443" stroke-linecap="butt" stroke-width="5" target-height="60.299988" target-width="0" target-x="852.39996" target-y="304.5"></path></svg>